<?xml version="1.0" encoding="UTF-8"?>
<svg xmlns="http://www.w3.org/2000/svg" width="1000" height="1540" viewBox="0 0 1000 1540">
  <defs>
    <marker id="a" markerWidth="9" markerHeight="9" refX="8" refY="4" orient="auto">
      <path d="M0,0 L0,8 L8,4 z" fill="#000000"/>
    </marker>
    <marker id="aThin" markerWidth="6" markerHeight="6" refX="5" refY="3" orient="auto">
      <path d="M0,0 L0,6 L6,3 z" fill="#000000"/>
    </marker>
  </defs>
  <rect width="100%" height="100%" fill="#ffffff"/>
  <text x="500" y="32" fill="#000000" font-family="Arial, Helvetica, sans-serif" font-size="14" font-weight="bold" text-anchor="middle">Алгоритм роботи веб-застосунку CRM для СТО</text>
  <text x="500" y="52" fill="#000000" font-family="Arial, Helvetica, sans-serif" font-size="10" text-anchor="middle">узагальнена модель дій користувача та відповіді системи</text>
  <circle cx="500" cy="88" r="7" fill="#000000"/>
  <line x1="500" y1="95" x2="500" y2="118" stroke="#000000" stroke-width="1.15" marker-end="url(#a)"/>
  <polygon points="500,115 568,160 500,205 432,160" fill="#ffffff" stroke="#000000" stroke-width="1.3"/>
  <text x="500" y="152" fill="#000000" font-family="Arial" font-size="10" font-weight="bold" text-anchor="middle">Вибір сценарію</text>
  <text x="500" y="168" fill="#000000" font-family="Arial" font-size="9" text-anchor="middle">роботи</text>
  <text x="268" y="142" fill="#000000" font-family="Arial" font-size="8.5" text-anchor="middle">Довідники</text>
  <text x="732" y="142" fill="#000000" font-family="Arial" font-size="8.5" text-anchor="middle">Наряд</text>
  <path d="M 432 160 L 210 160 L 210 248" stroke="#000000" stroke-width="1.15" fill="none" marker-end="url(#a)"/>
  <rect x="72" y="248" width="276" height="72" rx="6" fill="#ffffff" stroke="#000000" stroke-width="1.25"/>
  <text x="210" y="272" fill="#000000" font-family="Arial" font-size="10" font-weight="bold" text-anchor="middle">Підготовка довідників</text>
  <text x="210" y="290" fill="#000000" font-family="Arial" font-size="8.7" text-anchor="middle">персонал, склад, прайс, категорії</text>
  <text x="210" y="306" fill="#000000" font-family="Arial" font-size="8.7" text-anchor="middle">(ведення та збереження довідникових даних)</text>
  <path d="M 568 160 L 750 160 L 750 248" stroke="#000000" stroke-width="1.15" fill="none" marker-end="url(#a)"/>
  <rect x="612" y="248" width="276" height="56" rx="6" fill="#ffffff" stroke="#000000" stroke-width="1.25"/>
  <text x="750" y="272" fill="#000000" font-family="Arial" font-size="10" font-weight="bold" text-anchor="middle">Клієнт та транспортний засіб</text>
  <text x="750" y="290" fill="#000000" font-family="Arial" font-size="8.7" text-anchor="middle">картка клієнта, дані ТЗ, за потреби — VIN</text>
  <line x1="750" y1="304" x2="750" y2="330" stroke="#000000" stroke-width="1.15" marker-end="url(#a)"/>
  <rect x="600" y="330" width="300" height="52" rx="6" fill="#ffffff" stroke="#000000" stroke-width="1.25"/>
  <text x="750" y="352" fill="#000000" font-family="Arial" font-size="10" font-weight="bold" text-anchor="middle">Збагачення даних за VIN</text>
  <text x="750" y="370" fill="#000000" font-family="Arial" font-size="8.5" text-anchor="middle">використання зовнішніх джерел; уточнення при неповній відповіді</text>
  <line x1="750" y1="382" x2="750" y2="413" stroke="#000000" stroke-width="1.15" marker-end="url(#a)"/>
  <polygon points="750,417 808,455 750,493 692,455" fill="#ffffff" stroke="#000000" stroke-width="1.3"/>
  <text x="750" y="449" fill="#000000" font-family="Arial" font-size="9" font-weight="bold" text-anchor="middle">Запит</text>
  <text x="750" y="463" fill="#000000" font-family="Arial" font-size="8.8" text-anchor="middle">успішний?</text>
  <text x="598" y="443" fill="#000000" font-family="Arial" font-size="7.8">ні</text>
  <path d="M 692 455 L 340 455 L 340 492" stroke="#000000" stroke-width="1.15" fill="none" marker-end="url(#a)"/>
  <rect x="214" y="492" width="252" height="44" rx="5" fill="#ffffff" stroke="#000000" stroke-width="1.2"/>
  <text x="340" y="512" fill="#000000" font-family="Arial" font-size="8.8" text-anchor="middle">Повідомлення про помилку</text>
  <text x="340" y="526" fill="#000000" font-family="Arial" font-size="8.8" text-anchor="middle">або часткове заповнення полів</text>
  <text x="782" y="443" fill="#000000" font-family="Arial" font-size="7.8">так</text>
  <line x1="750" y1="493" x2="750" y2="556" stroke="#000000" stroke-width="1.15"/>
  <line x1="340" y1="536" x2="340" y2="556" stroke="#000000" stroke-width="1.15" marker-end="url(#a)"/>
  <line x1="340" y1="556" x2="612" y2="556" stroke="#000000" stroke-width="0.82"/>
  <rect x="612" y="584" width="276" height="68" rx="6" fill="#ffffff" stroke="#000000" stroke-width="1.25"/>
  <text x="750" y="608" fill="#000000" font-family="Arial" font-size="10" font-weight="bold" text-anchor="middle">Формування замовлення-наряду</text>
  <text x="750" y="626" fill="#000000" font-family="Arial" font-size="8.6" text-anchor="middle">послуги, призначений майстер, статус,</text>
  <text x="750" y="640" fill="#000000" font-family="Arial" font-size="8.6" text-anchor="middle">норми використання матеріалів (ТМЦ)</text>
  <line x1="612" y1="556" x2="612" y2="618" stroke="#000000" stroke-width="1.15" marker-end="url(#a)"/>
  <line x1="750" y1="556" x2="750" y2="584" stroke="#000000" stroke-width="1.15" marker-end="url(#a)"/>
  <line x1="750" y1="652" x2="750" y2="672" stroke="#000000" stroke-width="1.15" marker-end="url(#a)"/>
  <polygon points="750,676 812,712 750,748 688,712" fill="#ffffff" stroke="#000000" stroke-width="1.3"/>
  <text x="750" y="706" fill="#000000" font-family="Arial" font-size="9" font-weight="bold" text-anchor="middle">Статус</text>
  <text x="750" y="722" fill="#000000" font-family="Arial" font-size="8.5" text-anchor="middle">«Виконано»?</text>
  <text x="600" y="698" fill="#000000" font-family="Arial" font-size="7.8">ні</text>
  <rect x="196" y="768" width="248" height="40" rx="5" fill="#ffffff" stroke="#000000" stroke-width="1.2"/>
  <text x="320" y="790" fill="#000000" font-family="Arial" font-size="8.8" text-anchor="middle">Збереження поточного статусу та суми</text>
  <text x="820" y="698" fill="#000000" font-family="Arial" font-size="7.8">так</text>
  <path d="M 688 712 L 320 712 L 320 768" stroke="#000000" stroke-width="1.15" fill="none" marker-end="url(#a)"/>
  <path d="M 812 712 L 900 712 L 900 768" stroke="#000000" stroke-width="1.15" fill="none" marker-end="url(#a)"/>
  <rect x="772" y="768" width="156" height="40" rx="5" fill="#ffffff" stroke="#000000" stroke-width="1.2"/>
  <text x="850" y="792" fill="#000000" font-family="Arial" font-size="9" font-weight="bold" text-anchor="middle">Списання ТМЦ</text>
  <line x1="850" y1="808" x2="850" y2="838" stroke="#000000" stroke-width="1.15" marker-end="url(#a)"/>
  <polygon points="850,842 908,872 850,902 792,872" fill="#ffffff" stroke="#000000" stroke-width="1.25"/>
  <text x="850" y="864" fill="#000000" font-family="Arial" font-size="8.5" font-weight="bold" text-anchor="middle">Достатньо</text>
  <text x="850" y="878" fill="#000000" font-family="Arial" font-size="8.3" text-anchor="middle">залишків?</text>
  <text x="772" y="860" fill="#000000" font-family="Arial" font-size="7.8">ні</text>
  <line x1="792" y1="872" x2="300" y2="872" stroke="#000000" stroke-width="0.82" marker-end="url(#a)"/>
  <line x1="300" y1="872" x2="300" y2="928" stroke="#000000" stroke-width="1.15" marker-end="url(#a)"/>
  <rect x="158" y="928" width="284" height="40" rx="5" fill="#ffffff" stroke="#000000" stroke-width="1.2"/>
  <text x="300" y="948" fill="#000000" font-family="Arial" font-size="8.6" text-anchor="middle">Повідомлення про дефіцит</text>
  <text x="300" y="960" fill="#000000" font-family="Arial" font-size="8.6" text-anchor="middle">та відмова в списанні</text>
  <text x="918" y="860" fill="#000000" font-family="Arial" font-size="7.8">так</text>
  <polyline points="908,872 962,872 962,1008" stroke="#000000" stroke-width="1.15" fill="none" marker-end="url(#a)"/>
  <line x1="962" y1="1008" x2="501" y2="1008" stroke="#000000" stroke-width="0.82" marker-end="url(#aThin)"/>
  <line x1="300" y1="968" x2="300" y2="982" stroke="#000000" stroke-width="1.15" marker-end="url(#a)"/>
  <path d="M 300 982 L 38 982 L 38 1008" stroke="#000000" stroke-width="1.15" fill="none" marker-end="url(#a)"/>
  <path d="M 210 320 L 38 320 L 38 1008" stroke="#000000" stroke-width="1.15" fill="none" marker-end="url(#a)"/>
  <path d="M 38 788 L 196 788" stroke="#000000" stroke-width="1.15" fill="none" marker-end="url(#a)"/>
  <line x1="38" y1="788" x2="38" y2="808" stroke="#000000" stroke-width="1.15"/>
  <path d="M 320 808 L 320 860 L 38 860 L 38 1008" stroke="#000000" stroke-width="1.15" fill="none" marker-end="url(#a)"/>
  <line x1="38" y1="1008" x2="500" y2="1008" stroke="#000000" stroke-width="0.82" marker-end="url(#aThin)"/>
  <circle cx="500" cy="1008" r="4" fill="#000000"/>
  <line x1="500" y1="1008" x2="500" y2="1032" stroke="#000000" stroke-width="1.15" marker-end="url(#a)"/>
  <rect x="340" y="1032" width="320" height="44" rx="6" fill="#ffffff" stroke="#000000" stroke-width="1.3"/>
  <text x="500" y="1056" fill="#000000" font-family="Arial" font-size="10.5" font-weight="bold" text-anchor="middle">Серверна обробка</text>
  <text x="500" y="1072" fill="#000000" font-family="Arial" font-size="9" text-anchor="middle">(узгодження облікових даних)</text>
  <line x1="500" y1="1076" x2="500" y2="1100" stroke="#000000" stroke-width="1.15" marker-end="url(#a)"/>
  <line x1="220" y1="1100" x2="780" y2="1100" stroke="#000000" stroke-width="1.55"/>
  <line x1="260" y1="1100" x2="260" y2="1125" stroke="#000000" stroke-width="1.15" marker-end="url(#a)"/>
  <line x1="500" y1="1100" x2="500" y2="1125" stroke="#000000" stroke-width="1.15" marker-end="url(#a)"/>
  <line x1="740" y1="1100" x2="740" y2="1125" stroke="#000000" stroke-width="1.15" marker-end="url(#a)"/>
  <rect x="150" y="1125" width="220" height="46" rx="5" fill="#ffffff" stroke="#000000" stroke-width="1.2"/>
  <text x="260" y="1145" fill="#000000" font-family="Arial" font-size="9.2" font-weight="bold" text-anchor="middle">Запис даних</text>
  <text x="260" y="1161" fill="#000000" font-family="Arial" font-size="8.8" text-anchor="middle">у базу</text>
  <rect x="390" y="1125" width="220" height="46" rx="5" fill="#ffffff" stroke="#000000" stroke-width="1.2"/>
  <text x="500" y="1143" fill="#000000" font-family="Arial" font-size="9.2" font-weight="bold" text-anchor="middle">Оновлення аналітики</text>
  <text x="500" y="1159" fill="#000000" font-family="Arial" font-size="8.7" text-anchor="middle">(показники за період)</text>
  <rect x="630" y="1125" width="220" height="46" rx="5" fill="#ffffff" stroke="#000000" stroke-width="1.2"/>
  <text x="740" y="1143" fill="#000000" font-family="Arial" font-size="9.2" font-weight="bold" text-anchor="middle">Формування</text>
  <text x="740" y="1159" fill="#000000" font-family="Arial" font-size="8.8" text-anchor="middle">сповіщень</text>
  <line x1="260" y1="1171" x2="260" y2="1205" stroke="#000000" stroke-width="1.15" marker-end="url(#a)"/>
  <line x1="500" y1="1171" x2="500" y2="1205" stroke="#000000" stroke-width="1.15" marker-end="url(#a)"/>
  <line x1="740" y1="1171" x2="740" y2="1205" stroke="#000000" stroke-width="1.15" marker-end="url(#a)"/>
  <line x1="260" y1="1205" x2="740" y2="1205" stroke="#000000" stroke-width="1.55"/>
  <line x1="500" y1="1205" x2="500" y2="1235" stroke="#000000" stroke-width="1.15" marker-end="url(#a)"/>
  <rect x="340" y="1235" width="320" height="38" rx="6" fill="#ffffff" stroke="#000000" stroke-width="1.25"/>
  <text x="500" y="1258" fill="#000000" font-family="Arial" font-size="10" font-weight="bold" text-anchor="middle">Відправка відповіді користувачу</text>
  <line x1="500" y1="1273" x2="500" y2="1295" stroke="#000000" stroke-width="1.15" marker-end="url(#a)"/>
  <rect x="300" y="1295" width="400" height="46" rx="6" fill="#ffffff" stroke="#000000" stroke-width="1.25"/>
  <text x="500" y="1316" fill="#000000" font-family="Arial" font-size="10" font-weight="bold" text-anchor="middle">Оновлення інтерфейсу</text>
  <text x="500" y="1332" fill="#000000" font-family="Arial" font-size="8.8" text-anchor="middle">таблиці, графіки, індикатори статусів</text>
  <line x1="500" y1="1341" x2="500" y2="1375" stroke="#000000" stroke-width="1.15" marker-end="url(#a)"/>
  <circle cx="500" cy="1395" r="12" fill="#ffffff" stroke="#000000" stroke-width="2"/>
  <circle cx="500" cy="1395" r="5" fill="#000000"/>
  <text x="500" y="1435" fill="#000000" font-family="Arial" font-size="9" text-anchor="middle">Доступ до сценаріїв можливий лише після авторизації користувача.</text>
</svg>
