<?xml version="1.0" encoding="UTF-8"?>
<svg xmlns="http://www.w3.org/2000/svg" width="860" height="380" viewBox="0 0 860 380">
  <rect width="100%" height="100%" fill="#fff"/>
  <text x="430" y="26" fill="#000" font-family="Arial, Helvetica, sans-serif" font-size="14" font-weight="bold" text-anchor="middle">
    Fig. 4.12 (schematic). Leaderboard and demand bars</text>

  <rect x="24" y="48" width="400" height="300" rx="6" fill="none" stroke="#000"/>
  <text x="44" y="78" fill="#000" font-size="11" font-weight="bold">Master rating</text>
  <text x="340" y="78" fill="#666" font-size="9">TOP-5</text>
  <rect x="40" y="92" width="360" height="44" rx="4" fill="#f5f5f5" stroke="#ccc"/>
  <text x="56" y="118" fill="#000" font-size="10">#1 Name · role · 10%</text>
  <text x="360" y="118" fill="#080" font-size="10" font-weight="bold" text-anchor="end">12 400 UAH</text>
  <rect x="40" y="144" width="360" height="36" rx="4" fill="#fafafa" stroke="#ddd"/>
  <rect x="40" y="188" width="360" height="36" rx="4" fill="#fafafa" stroke="#ddd"/>
  <text x="224" y="258" fill="#666" font-size="9" text-anchor="middle">earnings = serviced sum * commission</text>

  <rect x="436" y="48" width="400" height="300" rx="6" fill="none" stroke="#000"/>
  <text x="456" y="78" fill="#000" font-size="11" font-weight="bold">Popular services</text>
  <text x="768" y="78" fill="#666" font-size="9">by demand</text>
  <text x="456" y="108" fill="#000" font-size="9">Oil change</text>
  <rect x="456" y="114" width="360" height="10" fill="#eee" stroke="#ccc"/>
  <rect x="456" y="114" width="280" height="10" fill="#3b82f6"/>
  <text x="456" y="148" fill="#000" font-size="9">Alignment</text>
  <rect x="456" y="154" width="360" height="10" fill="#eee" stroke="#ccc"/>
  <rect x="456" y="154" width="190" height="10" fill="#3b82f6"/>
  <text x="636" y="330" fill="#666" font-size="9" text-anchor="middle">counts from completed orders in period</text>
</svg>
