<?xml version="1.0" encoding="UTF-8"?>
<svg xmlns="http://www.w3.org/2000/svg" width="920" height="560" viewBox="0 0 920 560" font-family="Arial, Helvetica, sans-serif">
  <defs>
    <marker id="a" markerWidth="5" markerHeight="5" refX="4.2" refY="2.5" orient="auto">
      <path d="M0,0 L0,5 L4.5,2.5 z" fill="#1a1a1a"/>
    </marker>
    <marker id="al" markerWidth="5" markerHeight="5" refX="0.8" refY="2.5" orient="auto">
      <path d="M4.5,0 L4.5,5 L0,2.5 z" fill="#1a1a1a"/>
    </marker>
  </defs>
  <rect width="100%" height="100%" fill="#ffffff"/>
  <text x="460" y="26" fill="#000000" font-size="14" font-weight="bold" text-anchor="middle">CRM web application architecture (auto shop)</text>

  <rect x="16" y="48" width="370" height="505" fill="none" stroke="#1a1a1a" stroke-width="1" stroke-dasharray="7,5"/>
  <text x="201" y="72" font-size="12" font-weight="bold" text-anchor="middle">CLIENT TIER</text>

  <rect x="36" y="86" width="330" height="42" rx="8" fill="#ffffff" stroke="#1a1a1a" stroke-width="0.9" stroke-dasharray="4,3"/>
  <text x="201" y="112" font-size="10.5" font-weight="bold" text-anchor="middle">VIEW (UI)</text>

  <line x1="201" y1="128" x2="201" y2="142" stroke="#333333" stroke-width="0.85" marker-end="url(#a)"/>

  <rect x="36" y="142" width="330" height="40" rx="6" fill="#ffffff" stroke="#1a1a1a" stroke-width="0.9"/>
  <text x="201" y="166" font-size="10.5" font-weight="bold" text-anchor="middle">User actions</text>

  <line x1="201" y1="182" x2="201" y2="196" stroke="#333333" stroke-width="0.85" marker-end="url(#a)"/>

  <rect x="36" y="196" width="330" height="44" rx="6" fill="#ffffff" stroke="#1a1a1a" stroke-width="0.9"/>
  <text x="201" y="223" font-size="11" font-weight="bold" text-anchor="middle">apiClient (axios)</text>

  <line x1="201" y1="240" x2="201" y2="254" stroke="#333333" stroke-width="0.85" marker-end="url(#a)"/>

  <rect x="36" y="254" width="330" height="120" rx="10" fill="#ffffff" stroke="#1a1a1a" stroke-width="0.9" stroke-dasharray="4,3"/>
  <text x="201" y="286" font-size="11" font-weight="bold" text-anchor="middle">STORE — React Context API</text>
  <rect x="52" y="300" width="130" height="58" rx="5" fill="#fafafa" stroke="#1a1a1a" stroke-width="0.85"/>
  <text x="117" y="334" font-size="9" font-weight="bold" text-anchor="middle">State providers</text>
  <rect x="220" y="300" width="130" height="58" rx="5" fill="#fafafa" stroke="#1a1a1a" stroke-width="0.85"/>
  <text x="285" y="334" font-size="9" font-weight="bold" text-anchor="middle">UI refresh</text>
  <line x1="182" y1="329" x2="218" y2="329" stroke="#333333" stroke-width="0.75" marker-end="url(#a)"/>

  <path d="M 117 358 L 117 400 Q 117 430 201 430 Q 285 430 285 400 L 285 142" fill="none" stroke="#333333" stroke-width="0.85" marker-end="url(#a)"/>

  <rect x="398" y="48" width="124" height="505" fill="#f2f2f2" stroke="#1a1a1a" stroke-width="1"/>
  <text x="460" y="188" font-size="10" font-weight="bold" text-anchor="middle">HTTP Request</text>
  <line x1="412" y1="205" x2="508" y2="205" stroke="#333333" stroke-width="0.85" marker-end="url(#a)"/>
  <text x="460" y="248" font-size="10" font-weight="bold" text-anchor="middle">HTTP Response</text>
  <line x1="508" y1="235" x2="412" y2="235" stroke="#333333" stroke-width="0.85" marker-end="url(#al)"/>

  <rect x="534" y="48" width="370" height="505" fill="none" stroke="#1a1a1a" stroke-width="1" stroke-dasharray="7,5"/>
  <text x="719" y="72" font-size="12" font-weight="bold" text-anchor="middle">SERVER TIER</text>

  <rect x="554" y="86" width="330" height="46" rx="6" fill="#ffffff" stroke="#1a1a1a" stroke-width="0.9"/>
  <text x="719" y="115" font-size="11" font-weight="bold" text-anchor="middle">REST API — Express 5</text>

  <line x1="600" y1="142" x2="690" y2="142" stroke="#333333" stroke-width="0.75" marker-end="url(#a)"/>
  <text x="588" y="137" font-size="8.5" font-weight="bold">scheduler</text>
  <circle cx="602" cy="142" r="6" fill="none" stroke="#1a1a1a" stroke-width="0.85"/>

  <rect x="554" y="152" width="330" height="168" rx="8" fill="#fafafa" stroke="#1a1a1a" stroke-width="0.9"/>
  <text x="719" y="176" font-size="11" font-weight="bold" text-anchor="middle">Domain logic &amp; controllers</text>

  <rect x="568" y="188" width="150" height="56" rx="5" fill="#ffffff" stroke="#1a1a1a" stroke-width="0.85"/>
  <text x="643" y="221" font-size="9" font-weight="bold" text-anchor="middle">Orders &amp; journal</text>
  <rect x="730" y="188" width="140" height="56" rx="5" fill="#ffffff" stroke="#1a1a1a" stroke-width="0.85"/>
  <text x="800" y="221" font-size="9" font-weight="bold" text-anchor="middle">Customers &amp; vehicles</text>
  <rect x="568" y="252" width="150" height="56" rx="5" fill="#ffffff" stroke="#1a1a1a" stroke-width="0.85"/>
  <text x="643" y="285" font-size="9" font-weight="bold" text-anchor="middle">Inventory &amp; POs</text>
  <rect x="730" y="252" width="140" height="56" rx="5" fill="#ffffff" stroke="#1a1a1a" stroke-width="0.85"/>
  <text x="800" y="285" font-size="9" font-weight="bold" text-anchor="middle">Analytics &amp; alerts</text>

  <rect x="568" y="316" width="302" height="40" rx="5" fill="#ffffff" stroke="#1a1a1a" stroke-width="0.85"/>
  <text x="719" y="340" font-size="8.5" font-weight="bold" text-anchor="middle">Auth, staff, services, price categories</text>

  <text x="554" y="372" font-size="10" font-weight="bold">External services</text>
  <ellipse cx="640" cy="398" rx="64" ry="22" fill="#ffffff" stroke="#1a1a1a" stroke-width="0.9"/>
  <text x="640" y="402" font-size="9" font-weight="bold" text-anchor="middle">VIN / Auto.RIA</text>
  <ellipse cx="800" cy="398" rx="58" ry="22" fill="#ffffff" stroke="#1a1a1a" stroke-width="0.9"/>
  <text x="800" y="402" font-size="9" font-weight="bold" text-anchor="middle">Email (Resend)</text>
  <line x1="643" y1="244" x2="640" y2="376" stroke="#666666" stroke-width="0.65" stroke-dasharray="3,3"/>
  <line x1="800" y1="244" x2="800" y2="376" stroke="#666666" stroke-width="0.65" stroke-dasharray="3,3"/>

  <rect x="554" y="430" width="155" height="48" rx="6" fill="#ffffff" stroke="#1a1a1a" stroke-width="0.85"/>
  <text x="632" y="458" font-size="10" font-weight="bold" text-anchor="middle">Files (Multer)</text>
  <rect x="721" y="430" width="163" height="48" rx="6" fill="#ffffff" stroke="#1a1a1a" stroke-width="0.85"/>
  <text x="803" y="458" font-size="10" font-weight="bold" text-anchor="middle">ORM — Prisma</text>

  <line x1="803" y1="478" x2="803" y2="502" stroke="#333333" stroke-width="0.85" marker-end="url(#a)"/>
  <line x1="803" y1="538" x2="803" y2="514" stroke="#333333" stroke-width="0.85" marker-end="url(#al)"/>
  <ellipse cx="803" cy="538" rx="52" ry="16" fill="#e8e8e8" stroke="#1a1a1a" stroke-width="0.9"/>
  <rect x="751" y="506" width="104" height="32" fill="#e8e8e8" stroke="#1a1a1a" stroke-width="0.9"/>
  <ellipse cx="803" cy="506" rx="52" ry="16" fill="#e8e8e8" stroke="#1a1a1a" stroke-width="0.9"/>
  <text x="803" y="528" font-size="10" font-weight="bold" text-anchor="middle">PostgreSQL</text>

  <line x1="366" y1="218" x2="398" y2="218" stroke="#333333" stroke-width="0.85" marker-end="url(#a)"/>
  <path d="M 508 205 L 528 205 L 528 109 L 554 109" fill="none" stroke="#333333" stroke-width="0.85" marker-end="url(#a)"/>
  <path d="M 554 129 L 520 129 L 520 235 L 508 235" fill="none" stroke="#333333" stroke-width="0.85" marker-end="url(#al)"/>
  <line x1="412" y1="235" x2="366" y2="235" stroke="#333333" stroke-width="0.85" marker-end="url(#al)"/>
</svg>
